<svg width="16" height="14" viewBox="0 0 16 14" fill="none" xmlns="http://www.w3.org/2000/svg">
<path d="M15.9 2.6H13.1V0H12.5V2.6H9.8V3.4H12.5V6H13.1V3.4H15.9V2.6Z" fill="#F61C0D"/>
<path d="M6.8 7.7C6.4 7.5 5.7 6.8 5.7 6.4C5.7 6 5.8 5.7 6.5 5.2C7.2 4.7 7.7 4 7.7 3.1C7.7 2 7.2 1 6.4 0.7H7.7L8.6 0H4.4C2.5 0 0.8 1.4 0.8 3.1C0.8 4.8 2.1 6.1 4 6.1H4.4C4.2 6.3 4.2 6.5 4.2 6.8C4.2 7.3 4.5 7.6 4.8 8H4.1C1.8 8 0 9.5 0 11C0 12.5 2 13.5 4.3 13.5C6.9 13.5 8.4 12 8.4 10.5C8.3 9.2 7.9 8.5 6.8 7.7ZM4.6 5.6C3.5 5.6 2.5 4.4 2.3 3C2.1 1.6 2.8 0.5 3.9 0.5C5 0.5 6 1.7 6.2 3.1C6.4 4.5 5.7 5.7 4.6 5.6ZM4.2 12.8C2.6 12.8 1.4 11.8 1.4 10.6C1.4 9.4 2.8 8.4 4.4 8.4C4.8 8.4 5.1 8.5 5.4 8.6C6.3 9.2 6.9 9.5 7.1 10.2C7.1 10.3 7.2 10.5 7.2 10.6C7.2 11.8 6.4 12.8 4.2 12.8Z" fill="#F61C0D"/>
</svg>
