<svg width="16" height="16" viewBox="0 0 16 16" fill="none" xmlns="http://www.w3.org/2000/svg">
<path d="M10.9546 15.925H12.9546C13.5546 15.925 13.9546 15.525 13.9546 14.925V7.925H14.9546C15.2546 7.925 15.5546 7.825 15.7546 7.625C16.1546 7.225 16.0546 6.625 15.6546 6.225L8.65464 0.225C8.25464 -0.075 7.75464 -0.075 7.35464 0.225L0.35464 6.225C-0.0453602 6.625 -0.14536 7.225 0.25464 7.625C0.35464 7.825 0.65464 7.925 0.95464 7.925H1.95464V14.925C1.95464 15.525 2.35464 15.925 2.95464 15.925H4.95464C5.55464 15.925 5.95464 15.525 5.95464 14.925V11.925H9.95464V14.925C9.95464 15.525 10.3546 15.925 10.9546 15.925Z" fill="white"/>
</svg>
