<svg width="20" height="20" viewBox="0 0 20 20" fill="none" xmlns="http://www.w3.org/2000/svg">
<path d="M7.49967 10C8.42015 10 9.16634 9.25381 9.16634 8.33333C9.16634 7.41286 8.42015 6.66666 7.49967 6.66666C6.5792 6.66666 5.83301 7.41286 5.83301 8.33333C5.83301 9.25381 6.5792 10 7.49967 10Z" stroke="black" stroke-linecap="round" stroke-linejoin="round"/>
<path d="M11.6667 8.33333C12.5871 8.33333 13.3333 7.58714 13.3333 6.66667C13.3333 5.74619 12.5871 5 11.6667 5C10.7462 5 10 5.74619 10 6.66667C10 7.58714 10.7462 8.33333 11.6667 8.33333Z" stroke="black" stroke-linecap="round" stroke-linejoin="round"/>
<path d="M12.4997 12.5C13.4201 12.5 14.1663 11.7538 14.1663 10.8333C14.1663 9.91286 13.4201 9.16666 12.4997 9.16666C11.5792 9.16666 10.833 9.91286 10.833 10.8333C10.833 11.7538 11.5792 12.5 12.4997 12.5Z" stroke="black" stroke-linecap="round" stroke-linejoin="round"/>
<path d="M8.33366 14.1667C9.25413 14.1667 10.0003 13.4205 10.0003 12.5C10.0003 11.5795 9.25413 10.8333 8.33366 10.8333C7.41318 10.8333 6.66699 11.5795 6.66699 12.5C6.66699 13.4205 7.41318 14.1667 8.33366 14.1667Z" stroke="black" stroke-linecap="round" stroke-linejoin="round"/>
<path d="M13.3337 16.6667C14.2541 16.6667 15.0003 15.9205 15.0003 15C15.0003 14.0795 14.2541 13.3333 13.3337 13.3333C12.4132 13.3333 11.667 14.0795 11.667 15C11.667 15.9205 12.4132 16.6667 13.3337 16.6667Z" stroke="black" stroke-linecap="round" stroke-linejoin="round"/>
</svg>
