<svg width="24" height="24" viewBox="0 0 24 24" fill="none" xmlns="http://www.w3.org/2000/svg">
<g clip-path="url(#clip0_90_3437)">
<path d="M17.8017 5.00901C17.7995 4.97385 17.7925 4.93926 17.7809 4.906C17.7773 4.89371 17.773 4.88162 17.7681 4.86971C17.7499 4.82964 17.7254 4.79278 17.6949 4.76084L17.6927 4.75819L13.0475 0.113029L13.0452 0.111517C13.0133 0.0812752 12.9766 0.0567036 12.9367 0.0387475C12.9248 0.0338332 12.9127 0.0294859 12.9005 0.0258946C12.8672 0.0143649 12.8326 0.00737148 12.7974 0.00510334C12.7893 0.00434728 12.7823 0 12.7742 0H0.387097C0.173324 0 0 0.173324 0 0.387097V23.6129C0 23.8267 0.173324 24 0.387097 24H17.4194C17.6331 24 17.8065 23.8267 17.8065 23.6129V5.03226C17.8065 5.02413 17.8021 5.01714 17.8017 5.00901ZM13.1613 1.32157L16.4849 4.64516H13.1613V1.32157ZM0.774194 23.2258V0.774194H12.3871V5.03226C12.3871 5.24603 12.5604 5.41935 12.7742 5.41935H17.0323V23.2258H0.774194Z" fill="black"/>
<path d="M14.3225 8.12915H3.48378C3.27 8.12915 3.09668 8.30247 3.09668 8.51625C3.09668 8.73002 3.27 8.90334 3.48378 8.90334H14.3225C14.5363 8.90334 14.7096 8.73002 14.7096 8.51625C14.7096 8.30247 14.5363 8.12915 14.3225 8.12915Z" fill="black"/>
<path d="M14.3225 11.2256H3.48378C3.27 11.2256 3.09668 11.3989 3.09668 11.6127C3.09668 11.8265 3.27 11.9998 3.48378 11.9998H14.3225C14.5363 11.9998 14.7096 11.8265 14.7096 11.6127C14.7096 11.3989 14.5363 11.2256 14.3225 11.2256Z" fill="black"/>
<path d="M3.48378 15.0962H6.58055C6.79432 15.0962 6.96765 14.9229 6.96765 14.7091C6.96765 14.4953 6.79432 14.322 6.58055 14.322H3.48378C3.27 14.322 3.09668 14.4953 3.09668 14.7091C3.09668 14.9229 3.27 15.0962 3.48378 15.0962Z" fill="black"/>
<path d="M14.3228 14.322H8.12928C7.91551 14.322 7.74219 14.4953 7.74219 14.7091C7.74219 14.9229 7.91551 15.0962 8.12928 15.0962H14.3228C14.5366 15.0962 14.7099 14.9229 14.7099 14.7091C14.7099 14.4953 14.5366 14.322 14.3228 14.322Z" fill="black"/>
<path d="M12.0001 17.4199H9.29042C9.07664 17.4199 8.90332 17.5932 8.90332 17.807C8.90332 18.0208 9.07664 18.1941 9.29042 18.1941H12.0001C12.2139 18.1941 12.3872 18.0208 12.3872 17.807C12.3872 17.5932 12.2139 17.4199 12.0001 17.4199Z" fill="black"/>
<path d="M7.74184 17.4199H3.48378C3.27 17.4199 3.09668 17.5932 3.09668 17.807C3.09668 18.0208 3.27 18.1941 3.48378 18.1941H7.74184C7.95562 18.1941 8.12894 18.0208 8.12894 17.807C8.12894 17.5932 7.95562 17.4199 7.74184 17.4199Z" fill="black"/>
</g>
<defs>
<clipPath id="clip0_90_3437">
<rect width="24" height="24" fill="white"/>
</clipPath>
</defs>
</svg>
