<svg width="20" height="33" viewBox="0 0 20 33" fill="none" xmlns="http://www.w3.org/2000/svg">
<path d="M1.75 3.75C7.08333 -0.25 12.4167 -0.25 17.75 3.75M0.75 5.75H18.75M6.75 13.75C8.75 15.0833 10.75 15.0833 12.75 13.75M7.75 17.75C7.75 22.4167 7.08333 26.4167 5.75 29.75M9.75 17.75V31.75M11.75 17.75C11.75 22.4167 12.4167 26.4167 13.75 29.75M18.75 9.75C18.75 14.7206 14.7206 18.75 9.75 18.75C4.77944 18.75 0.75 14.7206 0.75 9.75C0.75 4.77944 4.77944 0.75 9.75 0.75C14.7206 0.75 18.75 4.77944 18.75 9.75ZM7.55 9.75C7.55 10.1918 7.19183 10.55 6.75 10.55C6.30817 10.55 5.95 10.1918 5.95 9.75C5.95 9.30817 6.30817 8.95 6.75 8.95C7.19183 8.95 7.55 9.30817 7.55 9.75ZM13.55 9.75C13.55 10.1918 13.1918 10.55 12.75 10.55C12.3082 10.55 11.95 10.1918 11.95 9.75C11.95 9.30817 12.3082 8.95 12.75 8.95C13.1918 8.95 13.55 9.30817 13.55 9.75Z" stroke="#F4A024" stroke-width="1.5" stroke-linecap="round" stroke-linejoin="round"/>
</svg>
