<svg width="24" height="24" viewBox="0 0 24 24" fill="none" xmlns="http://www.w3.org/2000/svg">
<path d="M23.935 5.59161L22.3867 3.26903C22.3148 3.16137 22.194 3.09677 22.0646 3.09677H13.1614V0.387097C13.1614 0.173323 12.988 0 12.7743 0H11.2259C11.0121 0 10.8388 0.173323 10.8388 0.387097V3.09677H4.25814C4.04436 3.09677 3.87104 3.2701 3.87104 3.48387V8.12903C3.87104 8.34281 4.04436 8.51613 4.25814 8.51613H10.8388V9.67742H1.93556C1.80617 9.67742 1.6853 9.74202 1.61349 9.84968L0.0651048 12.1723C-0.0217016 12.3023 -0.0217016 12.4719 0.0651048 12.6019L1.61349 14.9245C1.6853 15.0322 1.80617 15.0968 1.93556 15.0968H10.8388V23.6129C10.8388 23.8267 11.0121 24 11.2259 24H12.7743C12.988 24 13.1614 23.8267 13.1614 23.6129V15.0968H19.742C19.9558 15.0968 20.1291 14.9235 20.1291 14.7097V10.0645C20.1291 9.85074 19.9558 9.67742 19.742 9.67742H13.1614V8.51613H22.0646C22.194 8.51613 22.3148 8.45153 22.3867 8.34387L23.935 6.02129C24.0218 5.89123 24.0218 5.72168 23.935 5.59161ZM11.613 0.774193H12.3872V3.09677H11.613V0.774193ZM12.3872 23.2258H11.613V15.0968H12.3872V23.2258ZM19.3549 10.4516V14.3226H2.14265L0.851686 12.3871L2.14188 10.4516H19.3549ZM11.613 9.67742V8.51613H12.3872V9.67742H11.613ZM21.8583 7.74194H4.64523V3.87097H21.8575L23.1485 5.80645L21.8583 7.74194Z" fill="#171717"/>
</svg>
