<svg width="20" height="20" viewBox="0 0 20 20" fill="none" xmlns="http://www.w3.org/2000/svg">
<path d="M10 3.33334V17.5" stroke="black" stroke-linecap="round" stroke-linejoin="round"/>
<path d="M10 5.83334C8.75 5 7.08333 5 6.25 5.83334" stroke="black" stroke-linecap="round" stroke-linejoin="round"/>
<path d="M10 5.83334C11.25 5 12.9167 5 13.75 5.83334" stroke="black" stroke-linecap="round" stroke-linejoin="round"/>
<path d="M10 8.33334C8.75 7.5 7.08333 7.5 6.25 8.33334" stroke="black" stroke-linecap="round" stroke-linejoin="round"/>
<path d="M10 8.33334C11.25 7.5 12.9167 7.5 13.75 8.33334" stroke="black" stroke-linecap="round" stroke-linejoin="round"/>
<path d="M10 10.8333C8.75 10 7.08333 10 6.25 10.8333" stroke="black" stroke-linecap="round" stroke-linejoin="round"/>
<path d="M10 10.8333C11.25 10 12.9167 10 13.75 10.8333" stroke="black" stroke-linecap="round" stroke-linejoin="round"/>
<path d="M10 13.3333C8.75 12.5 7.08333 12.5 6.25 13.3333" stroke="black" stroke-linecap="round" stroke-linejoin="round"/>
<path d="M10 13.3333C11.25 12.5 12.9167 12.5 13.75 13.3333" stroke="black" stroke-linecap="round" stroke-linejoin="round"/>
</svg>
