<svg width="394" height="60" viewBox="0 0 394 60" fill="none" xmlns="http://www.w3.org/2000/svg">
<g clip-path="url(#clip0_92_779)">
<path d="M6.00596 16.5914L8.27556 15.0678C8.7106 14.7762 9.02868 14.3737 9.18463 13.9179C9.30981 13.5483 9.45961 13.1212 9.55401 12.8624C9.75922 12.308 9.98084 11.7598 10.2086 11.2218L8.04162 12.5606C7.60864 12.8296 7.28235 13.2012 7.09972 13.6304C6.69546 14.5873 6.32814 15.575 6.00391 16.5873L6.00596 16.5914Z" fill="url(#paint0_linear_92_779)"/>
<path d="M4.92462 10.8131C4.49163 11.4908 4.32336 12.269 4.44853 13.0308L4.65169 14.2628L5.00875 16.4209C5.39044 15.2854 5.82138 14.1828 6.30157 13.115C6.53755 12.5955 6.62374 12.0349 6.55808 11.4805L6.25437 8.90555C5.78854 9.51951 5.3494 10.1581 4.92872 10.8131H4.92667H4.92462Z" fill="url(#paint1_linear_92_779)"/>
<path d="M8.03535 11.6057L10.0792 10.3409C10.5471 10.0513 10.9165 9.65913 11.1422 9.20123C11.2551 8.97536 11.372 8.74743 11.487 8.52361C11.7435 8.03696 12.0061 7.55852 12.2791 7.09034C12.3714 6.93223 12.4638 6.77207 12.5581 6.61601L11.9179 7.01232L10.5738 7.84188C10.1798 8.08418 9.86171 8.40041 9.63187 8.76591C9.05934 9.67145 8.5258 10.6201 8.03125 11.6037L8.03535 11.6057Z" fill="url(#paint2_linear_92_779)"/>
<path d="M7.17139 8.95072L7.40123 10.8912C7.80549 10.1396 8.23642 9.41274 8.68583 8.70842C8.9957 8.22588 9.12908 7.67146 9.06341 7.1191L8.97312 6.37578L8.90746 5.82957C8.76381 5.97331 8.62222 6.1191 8.48062 6.26695C8.3103 6.44559 8.04763 6.74128 7.79317 7.0267C7.31093 7.57495 7.08726 8.25873 7.16729 8.94456H7.16934L7.17139 8.95072Z" fill="url(#paint3_linear_92_779)"/>
<path d="M0.666992 33.8439C1.09998 35.8172 1.73613 37.7022 2.55696 39.4661C3.15207 40.7474 4.21299 41.8357 5.57147 42.579L7.30548 43.5277C6.46823 42.2156 5.74179 40.7823 5.14259 39.2526C4.84503 38.4949 4.39768 37.7885 3.81078 37.1663L0.666992 33.846V33.8439Z" fill="url(#paint4_linear_92_779)"/>
<path d="M11.208 6.49691L13.5741 5.03285C14.0419 4.34085 14.5303 3.66734 15.0392 3.02053C15.3881 2.57289 15.7493 2.13757 16.1186 1.71457C16.3936 1.39835 16.6727 1.08623 16.9579 0.782333C14.8484 2.32443 12.9051 4.25256 11.208 6.49486V6.49691Z" fill="url(#paint5_linear_92_779)"/>
<path d="M9.72861 5.04107L9.91125 6.58316L9.94614 6.88706C12.0598 4.03901 14.5572 1.6961 17.2782 0C16.4389 0.37577 15.6119 0.796715 14.8075 1.26489C14.2227 1.60164 13.6481 1.96509 13.0879 2.35113C11.91 3.15606 10.7854 4.05749 9.72656 5.04723L9.72861 5.04107Z" fill="url(#paint6_linear_92_779)"/>
<path d="M4.80571 21.4949C4.71952 21.9897 4.64565 22.4846 4.58203 22.9774L6.68952 21.117C7.27847 20.5975 7.67247 19.9363 7.81817 19.2238C8.04184 18.1478 8.38044 16.5667 8.58359 15.8522L6.38171 17.3285C5.89947 17.653 5.56498 18.1129 5.43775 18.6283C5.2387 19.4456 4.9432 20.7043 4.80571 21.4969V21.4949Z" fill="url(#paint7_linear_92_779)"/>
<path d="M2.05226 16.5791C1.83474 17.1335 1.82038 17.7331 2.00507 18.2957L3.05984 21.4805L3.49283 22.7803C3.53797 22.4784 3.58517 22.1745 3.63852 21.8706C3.815 20.8542 4.02842 19.8583 4.28288 18.8809C4.37317 18.54 4.38753 18.1889 4.33008 17.846L3.73497 14.232L3.55849 13.1766C3.37996 13.5175 3.20759 13.8624 3.04342 14.2115C2.74792 14.8296 2.33956 15.8522 2.05432 16.5791H2.05226Z" fill="url(#paint8_linear_92_779)"/>
<path d="M0.0306292 26.2895C-0.00425625 27.0883 -0.00836041 27.8809 0.0183167 28.6653C0.0244729 28.848 0.05115 29.2115 0.0901396 29.6427C0.235837 31.3265 0.980744 32.9363 2.22431 34.2485L4.17789 36.3142C3.91522 35.3388 3.62383 33.6468 3.45145 32.5729C3.34474 31.9076 3.1026 31.2669 2.73938 30.6776L1.17774 28.1499L0.0306292 26.2895Z" fill="url(#paint9_linear_92_779)"/>
<path d="M0.454961 22.3717C0.397502 22.7002 0.348252 23.0267 0.299002 23.3552C0.173825 24.2546 0.364669 25.1684 0.859221 25.9692L1.98171 27.7885L2.83127 29.1663L3.14729 29.6756C3.08163 28.3429 3.09394 26.9795 3.18834 25.5934C3.22117 25.1006 3.1555 24.6099 3.0016 24.1376L2.16229 21.5996L1.66159 20.0903L1.26143 18.885C1.13625 19.3183 1.01928 19.7536 0.910523 20.191C0.77919 20.7248 0.660169 21.2669 0.555513 21.8152C0.520627 21.9979 0.487794 22.1828 0.454961 22.3634V22.3717Z" fill="url(#paint10_linear_92_779)"/>
<path d="M12.8213 19.4949L14.7215 18.6776C15.0888 18.5195 15.3864 18.269 15.5772 17.9589C15.7332 17.7084 15.9117 17.4168 16.0246 17.2444C16.2688 16.8686 16.5191 16.499 16.7777 16.1376L14.9842 16.8357C14.6271 16.9754 14.3255 17.2053 14.1203 17.4908C13.6647 18.1314 13.2317 18.7988 12.8233 19.4949H12.8213Z" fill="url(#paint11_linear_92_779)"/>
<path d="M13.0206 15.1848C12.5917 15.6201 12.3393 16.1602 12.3003 16.729L12.2387 17.6448L12.1279 19.2526C12.5958 18.4764 13.0965 17.7351 13.6239 17.0246C13.8825 16.6797 14.0405 16.2813 14.0856 15.8747L14.3031 13.9754C13.8619 14.3634 13.4351 14.768 13.0185 15.1889H13.0206V15.1848Z" fill="url(#paint12_linear_92_779)"/>
<path d="M15.1357 16.1478L16.8287 15.4887C17.2166 15.3367 17.549 15.0986 17.7911 14.7967C17.9102 14.6468 18.0333 14.499 18.1585 14.3491C18.4273 14.0308 18.6982 13.7166 18.9752 13.4107C19.0696 13.3059 19.1619 13.2053 19.2584 13.1027L18.7289 13.308L17.6167 13.7413C17.2925 13.8665 17.0052 14.0575 16.7795 14.2895C16.211 14.8747 15.6652 15.4949 15.1398 16.1417V16.1478H15.1378H15.1357Z" fill="url(#paint13_linear_92_779)"/>
<path d="M14.964 14.117L14.7998 15.5503C15.2205 15.0575 15.6555 14.5852 16.0988 14.1335C16.4066 13.8234 16.5954 13.4394 16.6405 13.0329L16.7021 12.4846L16.7472 12.0821C16.62 12.1684 16.4907 12.2587 16.3655 12.347C16.2096 12.4538 15.9715 12.6324 15.7397 12.8131C15.2964 13.1499 15.0194 13.616 14.9619 14.1212V14.115L14.964 14.117Z" fill="url(#paint14_linear_92_779)"/>
<path d="M4.76086 33.0903C4.76086 33.0903 4.76086 33.1027 4.76292 33.1088C5.00096 34.4661 5.32519 35.7762 5.7315 37.0329L6.33892 35.6735L6.65699 34.9589L6.82731 34.5811L6.94018 34.3306C7.40805 33.2834 7.56811 32.154 7.42036 31.039C7.36906 30.6674 7.32802 30.2936 7.28903 29.9158C7.20284 29.0596 7.14949 28.193 7.12486 27.3162L6.48051 28.193L6.00648 28.8398L5.69046 29.2731C5.36623 29.7146 5.11793 30.1889 4.95171 30.6838C4.68699 31.46 4.62132 32.2813 4.76086 33.0924H4.75881L4.76086 33.0903Z" fill="url(#paint15_linear_92_779)"/>
<path d="M6.98758 40.115C7.01221 40.1828 7.03478 40.2485 7.05941 40.3183C7.07172 40.3511 7.08403 40.3799 7.09429 40.4127C7.21331 40.7166 7.43084 40.9877 7.71197 41.1992L9.21615 42.3265L9.40904 41.8337C9.4665 41.6879 9.49934 41.538 9.50754 41.384L9.54653 40.6448L9.55269 40.5072V40.4928C9.59168 39.7084 9.4665 38.9281 9.18537 38.1786C8.94938 37.5524 8.73596 36.9138 8.53896 36.2649C8.49792 36.1273 8.45893 35.9897 8.41583 35.8542C8.37479 35.7146 8.3358 35.575 8.29681 35.4312C8.28861 35.4004 8.27835 35.3717 8.27219 35.3388C8.16753 34.9507 8.06903 34.5606 7.97669 34.1643L7.75917 34.653L7.67503 34.8378L7.19485 35.9117C7.10455 36.1088 7.02863 36.308 6.96501 36.5113C6.93218 36.616 6.89935 36.7207 6.87267 36.8234C6.58332 37.9097 6.62026 39.0411 6.97732 40.1109H6.98348L6.98758 40.115Z" fill="url(#paint16_linear_92_779)"/>
<path d="M18.3 12.846L20.2597 12.0821C20.7153 11.6407 21.1832 11.2135 21.6593 10.809C21.9876 10.5298 22.3241 10.2608 22.6607 10.002C22.9131 9.80903 23.1696 9.61806 23.4261 9.43326C21.6387 10.2854 19.9047 11.4374 18.2959 12.8439H18.2979L18.3 12.846Z" fill="url(#paint17_linear_92_779)"/>
<path d="M17.4754 11.6099L17.3441 12.7454L17.3174 12.9692C19.3325 11.1766 21.5324 9.79466 23.7897 8.90759C23.1166 9.07392 22.4496 9.2772 21.7909 9.51334C21.3107 9.68583 20.8347 9.87474 20.3647 10.0821C19.3756 10.5174 18.4111 11.0267 17.4774 11.6119L17.4754 11.6099Z" fill="url(#paint18_linear_92_779)"/>
<path d="M11.1196 22.8932C10.9739 23.2423 10.8364 23.5873 10.7051 23.9363L12.5437 22.8542C13.0588 22.5524 13.4549 22.1232 13.6827 21.6263C14.0253 20.8789 14.5404 19.7741 14.8092 19.2834L12.9685 20.076C12.5643 20.2485 12.2441 20.5421 12.0656 20.8994C11.7824 21.4661 11.3535 22.3388 11.1217 22.8932H11.1196Z" fill="url(#paint19_linear_92_779)"/>
<path d="M11.6294 16.7228L11.576 17.5092L11.5452 17.9425V17.961L11.3934 20.1971C11.3749 20.4538 11.1102 21.0144 11.0035 21.2546L10.9193 21.4517L10.8927 21.5195C10.8783 21.5544 10.8598 21.5934 10.8475 21.6366L8.78928 26.6489C8.78928 26.6489 8.62306 21.6304 9.71887 19.423C9.76402 19.3285 9.81122 19.2382 9.86457 19.1581C9.8974 19.1047 9.93024 19.0513 9.96512 19.0021C9.97743 18.9836 9.98975 18.9692 9.99796 18.9548C10.3324 18.4579 10.8024 17.7721 11.0835 17.4127C11.262 17.1807 11.4467 16.9528 11.6314 16.7269H11.6294V16.7228Z" fill="url(#paint20_linear_92_779)"/>
<path d="M9.8625 19.1519C9.80914 19.2361 9.76194 19.3244 9.7168 19.4168C9.74963 19.3326 9.80093 19.2443 9.8625 19.1519Z" fill="url(#paint21_linear_92_779)"/>
<path d="M4.38559 25.384C4.33429 26.6099 4.27888 28.5113 4.35071 29.6345L5.31108 28.3265L5.59427 27.9384L5.66609 27.8439L6.14218 27.191L6.61621 26.5441C6.93838 26.1027 7.12307 25.5996 7.14975 25.078C7.18053 24.5236 7.22362 23.7536 7.27698 23.0308C7.31802 22.4949 7.36316 21.9774 7.41036 21.5934L5.37264 23.3943C4.76728 23.9302 4.41227 24.6365 4.38354 25.3819H4.38559V25.384Z" fill="url(#paint22_linear_92_779)"/>
<path d="M12.9893 23.2875C12.7513 23.9281 12.4045 25.0821 12.2054 25.7741C12.0987 26.1458 11.8771 26.4867 11.5713 26.77L11.3394 26.9795L11.2922 27.0246L9.22168 28.9446C9.33865 27.8501 9.63825 26.6283 10.2621 25.3634C10.2682 25.345 10.2806 25.3306 10.2867 25.3121C10.4776 24.922 10.7936 24.5811 11.2081 24.3409L12.9893 23.2936V23.2875Z" fill="url(#paint23_linear_92_779)"/>
<path d="M4.4873 42.9117C8.11539 48.347 13.7237 52.1232 20.4812 52.9795C21.694 53.1355 22.9027 53.1889 24.1052 53.1499C23.1613 52.8645 20.8814 51.8111 19.999 51.3963C19.131 50.9076 18.2978 50.3593 17.5016 49.7515C16.8552 49.2587 16.2355 48.729 15.6424 48.1622C14.7395 47.3039 13.9002 46.3614 13.1245 45.3511C12.1149 44.0308 11.214 42.5873 10.4404 41.0431L9.82067 45.8727V45.9076L4.49141 42.9138H4.48936L4.4873 42.9117Z" fill="url(#paint24_linear_92_779)"/>
<path d="M47.2429 40.1253C47.1629 51.1109 36.9497 60 24.3601 60C11.7706 60 1.67229 51.2074 1.48145 40.2998C4.65191 48.6776 13.6852 54.7207 24.3314 54.7207C34.9776 54.7207 44.1319 48.5914 47.2429 40.1232V40.1253Z" fill="url(#paint25_linear_92_779)"/>
<path d="M31.6659 52.0452C31.6659 52.0452 40.4673 49.2875 44.1939 43.2361C44.1939 43.2361 30.2685 40.499 31.6659 52.0452Z" fill="#00663C"/>
<path d="M30.305 52.0452C30.305 52.0452 29.0593 44.1355 35.3305 41.9117C41.6017 39.6879 45.4781 36.9774 46.6498 24.6673C46.6498 24.6673 41.0476 25.4476 36.1944 29.4702C30.5163 34.1786 30.9411 42.0123 30.9411 42.0123C30.9411 42.0123 33.9925 35.7166 41.5627 31.4558C41.5627 31.4558 33.814 37.345 31.1812 42.7905C28.6838 47.961 30.2988 52.0452 30.2988 52.0452H30.3009H30.305Z" fill="#00663C"/>
<path d="M20.4982 36.3183C20.4982 36.3183 24.8979 47.7331 28.2243 50.0616C28.2243 50.0616 32.1356 38.345 18.0522 30.9548C18.0522 30.9548 11.3029 47.885 28.4213 51.46C28.4213 51.46 21.867 45.3532 20.4982 36.3203V36.3183Z" fill="#00663C"/>
<path d="M11.8075 27.3901C11.6166 28.308 11.4792 29.2197 11.3868 30.1191C11.3683 30.2895 11.3417 30.4558 11.3068 30.6222C11.3006 30.6571 11.2924 30.694 11.2822 30.7331C11.2739 30.7782 11.2616 30.8234 11.2493 30.8665C11.2493 30.8727 11.2493 30.8788 11.2432 30.885C11.237 30.9096 11.2309 30.9322 11.2247 30.9569C11.2185 30.9815 11.2103 31.0082 11.2042 31.0349C11.0482 31.5318 10.8081 32.0062 10.4859 32.4456L10.3013 32.6961C10.3013 32.6961 10.2828 32.7166 10.2766 32.7289L9.98524 33.1232C9.96062 33.1561 9.93804 33.1827 9.91342 33.2156C9.85186 33.2957 9.79029 33.3696 9.73694 33.4353C9.67743 33.5092 9.62407 33.5749 9.57893 33.6263C9.11105 31.5277 9.27727 30.4682 9.28958 30.3819V30.3696C9.33063 30.2382 9.38193 30.1068 9.43939 29.9815C9.66306 29.4805 9.99961 29.0185 10.4367 28.6242L11.8034 27.386L11.8075 27.3901Z" fill="url(#paint26_linear_92_779)"/>
<path d="M11.2451 30.8809C11.239 30.9055 11.2328 30.9281 11.2246 30.9528C11.2308 30.9281 11.239 30.9055 11.2431 30.8809H11.2451Z" fill="url(#paint27_linear_92_779)"/>
<path d="M10.2728 32.7269C10.1723 32.8665 10.0738 33.0021 9.98145 33.1211L10.2728 32.7269Z" fill="url(#paint28_linear_92_779)"/>
<path d="M11.1364 36.1068C11.0953 36.4086 11.0133 36.7023 10.9045 36.9856L10.767 37.3367L10.607 37.7515C10.4797 37.3614 10.3628 36.9877 10.2622 36.6304C10.0693 35.9528 9.91951 35.3388 9.80664 34.7782V34.7105C10.1021 34.3696 10.5515 33.7228 11.2493 32.5339C11.1569 33.5031 11.1323 34.4538 11.1713 35.386C11.1795 35.6283 11.1713 35.8665 11.1364 36.1006H11.1384L11.1364 36.1068Z" fill="url(#paint29_linear_92_779)"/>
<path d="M10.2728 32.7269C10.1723 32.8665 10.0738 33.0021 9.98145 33.1211L10.2728 32.7269Z" fill="url(#paint30_linear_92_779)"/>
<path d="M162.595 16.0472V5.83368H158.602V4.38399H168.242V5.83368H164.249V16.0472H162.597H162.595Z" fill="#00663C"/>
<path d="M178.48 16.1828C177.59 16.1828 176.769 16.0349 176.008 15.731C175.246 15.4312 174.592 15.0103 174.033 14.4702C173.479 13.9302 173.046 13.3019 172.732 12.577C172.418 11.8522 172.267 11.0678 172.267 10.2094C172.267 9.35113 172.423 8.56674 172.732 7.84189C173.042 7.11705 173.475 6.48871 174.033 5.94867C174.588 5.40863 175.242 4.98768 175.997 4.68789C176.752 4.38809 177.579 4.24025 178.478 4.24025C179.377 4.24025 180.186 4.38809 180.937 4.68378C181.684 4.97947 182.338 5.39425 182.9 5.93429C183.459 6.47434 183.892 7.10267 184.202 7.82752C184.505 8.54826 184.659 9.34087 184.659 10.2094C184.659 11.078 184.507 11.8706 184.202 12.5914C183.898 13.3121 183.463 13.9446 182.9 14.4846C182.338 15.0246 181.684 15.4394 180.937 15.7351C180.19 16.0308 179.369 16.1786 178.478 16.1786V16.1828H178.48ZM178.48 14.7002C179.127 14.7002 179.722 14.5893 180.27 14.3676C180.818 14.1458 181.298 13.8316 181.7 13.4251C182.102 13.0185 182.42 12.5442 182.65 11.9979C182.876 11.4538 182.991 10.8583 182.991 10.2156C182.991 9.5729 182.876 8.97947 182.65 8.43327C182.424 7.88707 182.106 7.41273 181.7 7.00616C181.294 6.59959 180.82 6.28542 180.27 6.06366C179.72 5.84189 179.121 5.73101 178.48 5.73101C177.84 5.73101 177.22 5.84189 176.672 6.06366C176.125 6.28542 175.644 6.59959 175.234 7.00616C174.824 7.41273 174.505 7.88707 174.274 8.43327C174.048 8.97742 173.933 9.5729 173.933 10.2156C173.933 10.8583 174.048 11.4517 174.274 11.9979C174.499 12.5442 174.817 13.0185 175.234 13.4251C175.644 13.8316 176.125 14.1458 176.672 14.3676C177.22 14.5893 177.826 14.7002 178.48 14.7002Z" fill="#00663C"/>
<path d="M188.605 16.0472L193.881 4.38399H195.527L200.821 16.0472H199.073L194.359 5.31623H195.024L190.31 16.0472H188.595H188.603H188.605ZM190.85 13.1355L191.297 11.8008H197.856L198.34 13.1355H190.85ZM194.468 3.43943L191.673 1.27516H193.702L195.968 3.43943H194.47H194.468Z" fill="#00663C"/>
<path d="M205.888 16.0472V4.38605H207.252L214.96 13.9672H214.246V4.38605H215.91V16.0493H214.545L206.838 6.46818H207.552V16.0493H205.888V16.0472Z" fill="#00663C"/>
<path d="M235.756 16.1828C234.865 16.1828 234.049 16.0349 233.302 15.7392C232.555 15.4435 231.904 15.0287 231.356 14.4887C230.808 13.9487 230.379 13.3203 230.065 12.5955C229.751 11.8706 229.6 11.078 229.6 10.2136C229.6 9.34908 229.756 8.55236 230.065 7.83162C230.375 7.11088 230.808 6.47844 231.366 5.9384C231.921 5.39836 232.575 4.98357 233.322 4.68789C234.069 4.3922 234.89 4.24435 235.78 4.24435C236.671 4.24435 237.51 4.3963 238.272 4.70226C239.033 5.00616 239.679 5.45996 240.209 6.05955L239.125 7.10678C238.682 6.64066 238.179 6.29364 237.627 6.06366C237.075 5.83368 236.478 5.72279 235.846 5.72279C235.214 5.72279 234.582 5.83368 234.024 6.05544C233.466 6.27721 232.977 6.59138 232.567 6.98768C232.156 7.39014 231.838 7.86448 231.607 8.41478C231.381 8.96304 231.266 9.56468 231.266 10.2053C231.266 10.846 231.381 11.4476 231.607 11.9959C231.832 12.5441 232.15 13.0205 232.567 13.423C232.977 13.8255 233.462 14.1335 234.024 14.3552C234.586 14.577 235.192 14.6879 235.846 14.6879C236.501 14.6879 237.073 14.5729 237.627 14.347C238.181 14.1212 238.684 13.7659 239.125 13.2895L240.209 14.3368C239.673 14.9363 239.029 15.3943 238.272 15.7023C237.51 16.0123 236.675 16.1684 235.768 16.1684L235.76 16.1828H235.756Z" fill="#00663C"/>
<path d="M243.866 16.0472L249.142 4.38399H250.787L256.082 16.0472H254.333L249.62 5.31622H250.285L245.571 16.0472H243.855H243.864H243.866ZM246.115 13.1355L246.562 11.8008H253.121L253.605 13.1355H246.115ZM250.295 3.58727L249.747 2.93635C250.069 2.78029 250.305 2.61397 250.453 2.42916C250.601 2.24436 250.679 2.04107 250.679 1.8193C250.679 1.59754 250.601 1.39836 250.443 1.25257C250.287 1.10883 250.077 1.03491 249.811 1.03491C249.464 1.03491 249.133 1.14169 248.809 1.35319L248.444 0.605752C248.655 0.449695 248.895 0.332652 249.168 0.254623C249.441 0.176594 249.704 0.139633 249.962 0.139633C250.473 0.139633 250.886 0.28337 251.194 0.564684C251.504 0.845999 251.66 1.22382 251.66 1.68994C251.66 2.10062 251.549 2.46612 251.327 2.77824C251.105 3.09651 250.761 3.36345 250.295 3.58522V3.58727Z" fill="#00663C"/>
<path d="M261.146 16.0472V4.38605H262.511L270.219 13.9672H269.505V4.38605H271.169V16.0493H269.804L262.097 6.46818H262.811V16.0493H261.146V16.0472Z" fill="#00663C"/>
<path d="M279.66 16.0472H277.996V4.38605H279.66V16.0493V16.0472ZM286.506 10.8522H279.496V9.40247H286.506V10.8522ZM286.358 4.38605H288.023V16.0493H286.358V4.38605Z" fill="#00663C"/>
<path d="M57.2922 33.5113C57.4296 33.5298 57.5589 33.5667 57.6697 33.6181C57.7805 33.6694 57.8914 33.7433 57.9919 33.8357C58.0925 33.9281 58.2135 34.0575 58.3428 34.2135L68.0615 46.5092C68.0245 46.117 67.9979 45.7331 67.9794 45.3655C67.9609 44.9979 67.9527 44.6448 67.9527 44.3183V33.4825H72.1369V53.9548H69.6642C69.2989 53.9548 68.9911 53.8994 68.7366 53.7844C68.4822 53.6735 68.2441 53.4661 68.0081 53.1663L58.3592 40.9692C58.3859 41.3244 58.4105 41.6756 58.429 42.0164C58.4475 42.3573 58.4557 42.6817 58.4557 42.9815V53.9569H54.2715V33.4846H56.7709C56.9782 33.4846 57.1485 33.4928 57.2922 33.5113Z" fill="#00663C"/>
<path d="M95.7032 43.7166C95.7032 45.1971 95.4488 46.5729 94.9378 47.848C94.431 49.1211 93.7107 50.23 92.7831 51.1704C91.8556 52.1109 90.7393 52.8501 89.4341 53.386C88.129 53.922 86.6802 54.1889 85.0837 54.1889C83.4872 54.1889 82.0405 53.922 80.7292 53.386C79.42 52.8501 78.2995 52.1129 77.3658 51.1704C76.4342 50.2279 75.7139 49.1211 75.2029 47.848C74.692 46.5749 74.4375 45.1992 74.4375 43.7166C74.4375 42.2341 74.692 40.8604 75.2029 39.5852C75.7139 38.3101 76.4342 37.2033 77.3658 36.2669C78.2975 35.3306 79.4179 34.5955 80.7292 34.0616C82.0384 33.5257 83.4913 33.2628 85.0837 33.2628C86.6761 33.2628 88.1228 33.5298 89.4341 34.0698C90.7393 34.6099 91.8556 35.3491 92.7831 36.2854C93.7107 37.2218 94.4289 38.3306 94.9378 39.5996C95.4488 40.8727 95.7032 42.2485 95.7032 43.7166ZM90.8419 43.7166C90.8419 42.7064 90.7126 41.7926 90.4499 40.9836C90.1872 40.1704 89.8138 39.4887 89.3192 38.9261C88.8267 38.3634 88.2255 37.9343 87.5154 37.6345C86.8054 37.3347 85.9928 37.1869 85.0858 37.1869C84.1787 37.1869 83.3518 37.3347 82.6376 37.6345C81.9235 37.9343 81.3181 38.3634 80.8256 38.9261C80.3331 39.4887 79.9576 40.1725 79.6949 40.9836C79.4323 41.7967 79.303 42.7043 79.303 43.7166C79.303 44.7289 79.4323 45.655 79.6949 46.462C79.9576 47.2752 80.3352 47.9569 80.8256 48.5195C81.3181 49.0821 81.9235 49.5113 82.6376 49.807C83.3518 50.1027 84.1685 50.2505 85.0858 50.2505C86.003 50.2505 86.8054 50.1027 87.5154 49.807C88.2255 49.5113 88.8308 49.0821 89.3192 48.5195C89.8117 47.9569 90.1872 47.2731 90.4499 46.462C90.7126 45.6489 90.8419 44.7351 90.8419 43.7166ZM90.731 32.1643H87.4477C87.2815 32.1643 87.0968 32.1417 86.8998 32.0945C86.7008 32.0493 86.5407 31.9877 86.4073 31.9096L85.369 31.2772C85.3238 31.2587 85.2807 31.2361 85.2438 31.2074C85.2068 31.1786 85.1658 31.1519 85.1186 31.1253C85.0735 31.1519 85.0304 31.1807 84.9934 31.2074C84.9565 31.2341 84.9154 31.2587 84.8682 31.2772L83.8258 31.9096C83.6965 31.9836 83.5303 32.0431 83.3333 32.0945C83.1404 32.1396 82.9557 32.1643 82.7854 32.1643H79.502L82.929 28.9754H87.3102L90.7372 32.1643H90.7331H90.731Z" fill="#00663C"/>
<path d="M100.997 33.5113C101.135 33.5298 101.264 33.5667 101.375 33.6181C101.486 33.6694 101.596 33.7433 101.697 33.8357C101.798 33.9281 101.919 34.0575 102.048 34.2135L111.767 46.5092C111.73 46.117 111.703 45.7331 111.684 45.3655C111.666 44.9959 111.658 44.6448 111.658 44.3183V33.4825H115.842V53.9548H113.369C113.004 53.9548 112.696 53.8994 112.442 53.7844C112.187 53.6735 111.943 53.4661 111.713 53.1663L102.064 40.9692C102.091 41.3244 102.116 41.6756 102.134 42.0164C102.153 42.3573 102.161 42.6817 102.161 42.9815V53.9569H97.9766V33.4846H100.476C100.679 33.4846 100.854 33.4928 100.997 33.5113Z" fill="#00663C"/>
<path d="M128.848 50.5277C129.503 50.5277 130.084 50.4723 130.593 50.3614C131.1 50.2505 131.576 50.0986 132.027 49.9138V46.807H130.008C129.708 46.807 129.472 46.7289 129.306 46.5667C129.14 46.4107 129.052 46.2074 129.052 45.963V43.3511H136.324V51.9959C135.799 52.3799 135.255 52.7105 134.687 52.9877C134.12 53.2649 133.515 53.4908 132.875 53.6715C132.234 53.8521 131.551 53.9815 130.827 54.0637C130.098 54.1458 129.322 54.1889 128.487 54.1889C126.989 54.1889 125.604 53.9261 124.332 53.3942C123.06 52.8624 121.956 52.1335 121.024 51.2012C120.092 50.269 119.364 49.1663 118.832 47.883C118.303 46.6037 118.038 45.2156 118.038 43.7146C118.038 42.2135 118.293 40.7844 118.795 39.5051C119.298 38.2259 120.027 37.1232 120.962 36.1951C121.904 35.2669 123.043 34.5482 124.375 34.0308C125.709 33.5133 127.199 33.2608 128.848 33.2608C129.702 33.2608 130.5 33.3306 131.251 33.4723C131.998 33.6098 132.69 33.8049 133.322 34.0493C133.954 34.2936 134.535 34.5852 135.056 34.922C135.577 35.2587 136.047 35.6242 136.458 36.0164L135.083 38.1109C134.953 38.3101 134.797 38.462 134.613 38.5729C134.428 38.6838 134.229 38.7433 134.018 38.7433C133.737 38.7433 133.445 38.6509 133.146 38.462C132.772 38.2361 132.417 38.0411 132.085 37.8809C131.752 37.7207 131.412 37.5852 131.065 37.4784C130.718 37.3717 130.355 37.2977 129.967 37.2526C129.579 37.2074 129.154 37.1827 128.676 37.1827C127.785 37.1827 126.987 37.3388 126.273 37.653C125.563 37.9671 124.954 38.4107 124.455 38.9815C123.956 39.5524 123.568 40.2423 123.298 41.039C123.025 41.8419 122.891 42.7331 122.891 43.7166C122.891 44.8049 123.039 45.77 123.343 46.6099C123.642 47.4538 124.057 48.1643 124.584 48.7474C125.114 49.3285 125.742 49.7721 126.466 50.076C127.19 50.3799 127.982 50.5339 128.846 50.5339V50.5257H128.842L128.848 50.5277Z" fill="#00663C"/>
<path d="M147.652 33.5113C147.789 33.5298 147.918 33.5667 148.029 33.6181C148.14 33.6694 148.251 33.7433 148.351 33.8357C148.452 33.9281 148.573 34.0575 148.702 34.2135L158.421 46.5092C158.384 46.117 158.357 45.7331 158.339 45.3655C158.32 44.9959 158.312 44.6448 158.312 44.3183V33.4825H162.496V53.9548H160.024C159.658 53.9548 159.35 53.8994 159.096 53.7844C158.842 53.6735 158.597 53.4661 158.368 53.1663L148.719 40.9692C148.745 41.3244 148.77 41.6756 148.788 42.0164C148.807 42.3573 148.815 42.6817 148.815 42.9815V53.9569H144.631V33.4846H147.13C147.333 33.4846 147.508 33.4928 147.652 33.5113Z" fill="#00663C"/>
<path d="M175.501 50.5277C176.155 50.5277 176.736 50.4723 177.245 50.3614C177.752 50.2505 178.228 50.0986 178.679 49.9138V46.807H176.66C176.361 46.807 176.125 46.7289 175.958 46.5667C175.792 46.4107 175.704 46.2074 175.704 45.963V43.3511H182.977V51.9959C182.451 52.3799 181.907 52.7105 181.339 52.9877C180.773 53.2649 180.167 53.4908 179.527 53.6715C178.887 53.8521 178.203 53.9815 177.479 54.0637C176.751 54.1458 175.975 54.1889 175.14 54.1889C173.642 54.1889 172.256 53.9261 170.984 53.3942C169.712 52.8645 168.608 52.1335 167.676 51.2012C166.745 50.269 166.016 49.1663 165.485 47.883C164.955 46.6037 164.69 45.2156 164.69 43.7146C164.69 42.2135 164.945 40.7844 165.448 39.5051C165.955 38.2259 166.679 37.1232 167.615 36.1951C168.557 35.2669 169.695 34.5482 171.027 34.0308C172.361 33.5133 173.851 33.2608 175.501 33.2608C176.354 33.2608 177.153 33.3306 177.904 33.4723C178.651 33.6098 179.342 33.8049 179.974 34.0493C180.606 34.2936 181.187 34.5852 181.708 34.922C182.23 35.2587 182.7 35.6242 183.11 36.0164L181.735 38.1109C181.606 38.3101 181.45 38.462 181.265 38.5729C181.08 38.6838 180.881 38.7433 180.67 38.7433C180.389 38.7433 180.097 38.6509 179.798 38.462C179.424 38.2361 179.069 38.0411 178.737 37.8809C178.405 37.7207 178.064 37.5852 177.717 37.4784C177.37 37.3717 177.007 37.2977 176.619 37.2526C176.231 37.2074 175.807 37.1827 175.328 37.1827C174.438 37.1827 173.64 37.3388 172.925 37.653C172.215 37.9671 171.606 38.4107 171.107 38.9815C170.609 39.5524 170.221 40.2423 169.95 41.039C169.677 41.8419 169.544 42.7331 169.544 43.7166C169.544 44.8049 169.691 45.77 169.995 46.6099C170.295 47.4538 170.709 48.1643 171.237 48.7474C171.766 49.3285 172.394 49.7721 173.118 50.076C173.843 50.3799 174.635 50.5339 175.499 50.5339V50.5257H175.495L175.501 50.5277Z" fill="#00663C"/>
<path d="M203.729 53.9569H198.955V45.2977H190.64V53.9569H185.867V33.4846H190.64V42.0411H198.955V33.4846H203.729V53.9569Z" fill="#00663C"/>
<path d="M212.295 53.9569H207.521V33.4846H212.295V53.9569Z" fill="#00663C"/>
<path d="M221.255 50.308H231.955V53.963H216.73V34.2875H231.592V37.9425H221.255V50.3121V50.308ZM218.528 32.6817L222.236 28.6345H226.111L229.819 32.6817H226.617L222.743 29.308H225.608L221.733 32.6817H218.528ZM220.919 42.2115H230.383V45.7515H220.919V42.2115ZM224.317 59.8604C223.773 59.8604 223.316 59.6899 222.942 59.3532C222.569 59.0164 222.38 58.5544 222.38 57.9774C222.38 57.4004 222.569 56.9261 222.942 56.5565C223.316 56.191 223.777 56.0082 224.317 56.0082C224.857 56.0082 225.318 56.193 225.692 56.5565C226.065 56.922 226.254 57.3963 226.254 57.9774C226.254 58.5585 226.065 59.0164 225.692 59.3532C225.318 59.6899 224.857 59.8604 224.317 59.8604Z" fill="#00663C"/>
<path d="M239.681 47.1129V53.9569H234.935V33.4846H242.154C243.598 33.4846 244.834 33.655 245.866 33.9959C246.898 34.3367 247.752 34.809 248.421 35.4086C249.09 36.0082 249.582 36.7146 249.9 37.5318C250.218 38.3491 250.381 39.2259 250.381 40.1725C250.381 41.193 250.214 42.1294 249.888 42.9836C249.56 43.8378 249.057 44.5667 248.384 45.1766C247.711 45.7864 246.853 46.2608 245.819 46.6037C244.787 46.9445 243.559 47.115 242.148 47.115H239.675H239.679L239.681 47.1129ZM239.681 43.5318H242.154C243.389 43.5318 244.28 43.2361 244.819 42.6447C245.363 42.0534 245.636 41.232 245.636 40.1704C245.636 39.7002 245.566 39.2751 245.425 38.8912C245.287 38.5072 245.07 38.1766 244.789 37.8994C244.503 37.6222 244.142 37.4107 243.705 37.2587C243.272 37.1109 242.751 37.0328 242.152 37.0328H239.679V43.5257L239.683 43.5298L239.681 43.5318Z" fill="#00663C"/>
<path d="M256.591 33.4846H260.41C260.82 33.4846 261.157 33.577 261.419 33.7659C261.682 33.9548 261.871 34.1992 261.982 34.5092L265.944 45.4702C266.125 45.9507 266.303 46.4661 266.484 47.0308C266.665 47.5955 266.839 48.1848 266.995 48.8029C267.124 48.1848 267.276 47.5934 267.453 47.0308C267.629 46.4682 267.799 45.9507 267.964 45.4702L271.897 34.5092C271.99 34.2464 272.174 34.0103 272.445 33.7988C272.718 33.5873 273.049 33.4805 273.441 33.4805H277.288L269.088 53.9528H264.789L256.589 33.4805V33.4846H256.591Z" fill="#00663C"/>
<path d="M284.173 53.9569H279.399V33.4846H284.173V53.9569Z" fill="#00663C"/>
<path d="M293.127 50.308H303.827V53.963H288.603V34.2875H303.464V37.9425H293.127V50.3121V50.308ZM290.406 32.6817L294.114 28.6345H297.989L301.697 32.6817H298.496L294.621 29.308H297.486L293.612 32.6817H290.406ZM292.797 42.2115H302.261V45.7515H292.797V42.2115ZM296.191 59.8604C295.647 59.8604 295.19 59.6899 294.816 59.3532C294.443 59.0164 294.254 58.5544 294.254 57.9774C294.254 57.4004 294.443 56.9261 294.816 56.5565C295.19 56.191 295.651 56.0082 296.191 56.0082C296.731 56.0082 297.193 56.193 297.566 56.5565C297.94 56.922 298.128 57.3963 298.128 57.9774C298.128 58.5585 297.94 59.0164 297.566 59.3532C297.193 59.6899 296.731 59.8604 296.191 59.8604Z" fill="#00663C"/>
<path d="M321.671 33.4846V37.2505H315.915V53.9569H311.168V37.2505H305.412V33.4846H321.675H321.671Z" fill="#00663C"/>
<path d="M332.074 33.5113C332.212 33.5298 332.341 33.5667 332.452 33.6181C332.563 33.6694 332.674 33.7433 332.774 33.8357C332.875 33.9281 332.996 34.0575 333.125 34.2135L342.844 46.5092C342.807 46.117 342.78 45.7331 342.762 45.3655C342.743 44.9979 342.735 44.6448 342.735 44.3183V33.4825H346.919V53.9548H344.446C344.081 53.9548 343.773 53.8994 343.519 53.7844C343.264 53.6735 343.026 53.4661 342.79 53.1663L333.141 40.9692C333.168 41.3244 333.193 41.6756 333.211 42.0164C333.23 42.3573 333.238 42.6817 333.238 42.9815V53.9569H329.054V33.4846H331.553C331.76 33.4846 331.931 33.4928 332.074 33.5113Z" fill="#00663C"/>
<path d="M369.334 53.9569H365.653C365.243 53.9569 364.902 53.8604 364.633 53.6715C364.366 53.4784 364.182 53.232 364.079 52.9322L362.87 49.3655H355.089L353.88 52.9322C353.788 53.1951 353.603 53.4312 353.332 53.6427C353.061 53.8542 352.729 53.961 352.337 53.961H348.629L356.548 33.4887H361.409L369.328 53.961H369.332V53.9569H369.334ZM356.189 46.1294H361.779L359.897 40.5216C359.772 40.1663 359.63 39.7454 359.468 39.2608C359.302 38.7762 359.14 38.2546 358.984 37.692C358.836 38.2649 358.68 38.7947 358.522 39.2793C358.36 39.7639 358.212 40.1889 358.071 40.5441L356.189 46.1232V46.1273V46.1294Z" fill="#00663C"/>
<path d="M381.994 45.7105C382.168 46.0944 382.334 46.4907 382.492 46.8912C382.654 46.4805 382.821 46.078 382.999 45.6858C383.174 45.2977 383.358 44.9199 383.547 44.5544L388.8 34.2033C388.893 34.0226 388.989 33.885 389.086 33.7885C389.182 33.692 389.293 33.6181 389.418 33.5708C389.537 33.5257 389.677 33.501 389.833 33.501H393.998V53.961H389.814V42.1827C389.814 41.6098 389.841 40.9918 389.896 40.3265L384.477 50.8542C384.306 51.1827 384.081 51.4312 383.793 51.5975C383.508 51.768 383.18 51.8521 382.816 51.8521H382.17C381.805 51.8521 381.479 51.77 381.193 51.5975C380.908 51.4312 380.682 51.1827 380.51 50.8542L375.064 40.3121C375.101 40.6406 375.127 40.9671 375.146 41.2895C375.164 41.6119 375.172 41.9117 375.172 42.1807V53.9589H370.988V33.499H375.154C375.306 33.499 375.445 33.5215 375.569 33.5688C375.688 33.614 375.798 33.6879 375.901 33.7864C375.997 33.8829 376.094 34.0226 376.186 34.2012L381.454 44.5955C381.643 44.9507 381.823 45.3244 381.994 45.7084H381.989L381.994 45.7105Z" fill="#00663C"/>
<path d="M393.995 9.55441H297.695V10.8522H393.995V9.55441Z" fill="url(#paint31_linear_92_779)"/>
<path d="M150.609 9.55441H54.3086V10.8522H150.609V9.55441Z" fill="url(#paint32_linear_92_779)"/>
</g>
<defs>
<linearGradient id="paint0_linear_92_779" x1="33.8322" y1="-12.6448" x2="-16.0866" y2="38.7075" gradientUnits="userSpaceOnUse">
<stop stop-color="#F58021"/>
<stop offset="0.39" stop-color="#FFD500"/>
<stop offset="0.68" stop-color="#E7A813"/>
<stop offset="1" stop-color="#DA8C19"/>
</linearGradient>
<linearGradient id="paint1_linear_92_779" x1="31.9629" y1="-14.46" x2="-17.9559" y2="36.8923" gradientUnits="userSpaceOnUse">
<stop stop-color="#F58021"/>
<stop offset="0.39" stop-color="#FFD500"/>
<stop offset="0.68" stop-color="#E7A813"/>
<stop offset="1" stop-color="#DA8C19"/>
</linearGradient>
<linearGradient id="paint2_linear_92_779" x1="32.5947" y1="-13.8419" x2="-17.3241" y2="37.5104" gradientUnits="userSpaceOnUse">
<stop stop-color="#F58021"/>
<stop offset="0.39" stop-color="#FFD500"/>
<stop offset="0.68" stop-color="#E7A813"/>
<stop offset="1" stop-color="#DA8C19"/>
</linearGradient>
<linearGradient id="paint3_linear_92_779" x1="31.111" y1="-15.2875" x2="-18.8057" y2="36.0648" gradientUnits="userSpaceOnUse">
<stop stop-color="#F58021"/>
<stop offset="0.39" stop-color="#FFD500"/>
<stop offset="0.68" stop-color="#E7A813"/>
<stop offset="1" stop-color="#DA8C19"/>
</linearGradient>
<linearGradient id="paint4_linear_92_779" x1="44.1137" y1="-2.64887" x2="-5.80096" y2="48.7034" gradientUnits="userSpaceOnUse">
<stop stop-color="#F58021"/>
<stop offset="0.39" stop-color="#FFD500"/>
<stop offset="0.68" stop-color="#E7A813"/>
<stop offset="1" stop-color="#DA8C19"/>
</linearGradient>
<linearGradient id="paint5_linear_92_779" x1="31.9156" y1="-14.5092" x2="-18.0032" y2="36.843" gradientUnits="userSpaceOnUse">
<stop stop-color="#F58021"/>
<stop offset="0.39" stop-color="#FFD500"/>
<stop offset="0.68" stop-color="#E7A813"/>
<stop offset="1" stop-color="#DA8C19"/>
</linearGradient>
<linearGradient id="paint6_linear_92_779" x1="30.9472" y1="-15.4497" x2="-18.9696" y2="35.9067" gradientUnits="userSpaceOnUse">
<stop stop-color="#F58021"/>
<stop offset="0.39" stop-color="#FFD500"/>
<stop offset="0.68" stop-color="#E7A813"/>
<stop offset="1" stop-color="#DA8C19"/>
</linearGradient>
<linearGradient id="paint7_linear_92_779" x1="35.6896" y1="-10.8378" x2="-14.2292" y2="40.5145" gradientUnits="userSpaceOnUse">
<stop stop-color="#F58021"/>
<stop offset="0.39" stop-color="#FFD500"/>
<stop offset="0.68" stop-color="#E7A813"/>
<stop offset="1" stop-color="#DA8C19"/>
</linearGradient>
<linearGradient id="paint8_linear_92_779" x1="33.5333" y1="-12.9343" x2="-16.3814" y2="38.418" gradientUnits="userSpaceOnUse">
<stop stop-color="#F58021"/>
<stop offset="0.39" stop-color="#FFD500"/>
<stop offset="0.68" stop-color="#E7A813"/>
<stop offset="1" stop-color="#DA8C19"/>
</linearGradient>
<linearGradient id="paint9_linear_92_779" x1="39.4594" y1="-7.17455" x2="-10.4594" y2="44.1777" gradientUnits="userSpaceOnUse">
<stop stop-color="#F58021"/>
<stop offset="0.39" stop-color="#FFD500"/>
<stop offset="0.68" stop-color="#E7A813"/>
<stop offset="1" stop-color="#DA8C19"/>
</linearGradient>
<linearGradient id="paint10_linear_92_779" x1="36.0032" y1="-10.5318" x2="-13.9115" y2="40.8204" gradientUnits="userSpaceOnUse">
<stop stop-color="#F58021"/>
<stop offset="0.39" stop-color="#FFD500"/>
<stop offset="0.68" stop-color="#E7A813"/>
<stop offset="1" stop-color="#DA8C19"/>
</linearGradient>
<linearGradient id="paint11_linear_92_779" x1="39.2398" y1="-7.384" x2="-10.6749" y2="43.9683" gradientUnits="userSpaceOnUse">
<stop stop-color="#F58021"/>
<stop offset="0.39" stop-color="#FFD500"/>
<stop offset="0.68" stop-color="#E7A813"/>
<stop offset="1" stop-color="#DA8C19"/>
</linearGradient>
<linearGradient id="paint12_linear_92_779" x1="37.8098" y1="-8.77824" x2="-12.107" y2="42.574" gradientUnits="userSpaceOnUse">
<stop stop-color="#F58021"/>
<stop offset="0.39" stop-color="#FFD500"/>
<stop offset="0.68" stop-color="#E7A813"/>
<stop offset="1" stop-color="#DA8C19"/>
</linearGradient>
<linearGradient id="paint13_linear_92_779" x1="38.8989" y1="-7.71664" x2="-11.0179" y2="43.6356" gradientUnits="userSpaceOnUse">
<stop stop-color="#F58021"/>
<stop offset="0.39" stop-color="#FFD500"/>
<stop offset="0.68" stop-color="#E7A813"/>
<stop offset="1" stop-color="#DA8C19"/>
</linearGradient>
<linearGradient id="paint14_linear_92_779" x1="37.6723" y1="-8.91171" x2="-12.2424" y2="42.4406" gradientUnits="userSpaceOnUse">
<stop stop-color="#F58021"/>
<stop offset="0.39" stop-color="#FFD500"/>
<stop offset="0.68" stop-color="#E7A813"/>
<stop offset="1" stop-color="#DA8C19"/>
</linearGradient>
<linearGradient id="paint15_linear_92_779" x1="42.117" y1="-4.58933" x2="-7.79769" y2="46.7629" gradientUnits="userSpaceOnUse">
<stop stop-color="#F58021"/>
<stop offset="0.39" stop-color="#FFD500"/>
<stop offset="0.68" stop-color="#E7A813"/>
<stop offset="1" stop-color="#DA8C19"/>
</linearGradient>
<linearGradient id="paint16_linear_92_779" x1="46.2686" y1="-0.558515" x2="-3.65021" y2="50.7937" gradientUnits="userSpaceOnUse">
<stop stop-color="#F58021"/>
<stop offset="0.39" stop-color="#FFD500"/>
<stop offset="0.68" stop-color="#E7A813"/>
<stop offset="1" stop-color="#DA8C19"/>
</linearGradient>
<linearGradient id="paint17_linear_92_779" x1="39.0384" y1="-7.58317" x2="-10.8804" y2="43.7691" gradientUnits="userSpaceOnUse">
<stop stop-color="#F58021"/>
<stop offset="0.39" stop-color="#FFD500"/>
<stop offset="0.68" stop-color="#E7A813"/>
<stop offset="1" stop-color="#DA8C19"/>
</linearGradient>
<linearGradient id="paint18_linear_92_779" x1="38.4785" y1="-8.12526" x2="-11.4362" y2="43.227" gradientUnits="userSpaceOnUse">
<stop stop-color="#F58021"/>
<stop offset="0.39" stop-color="#FFD500"/>
<stop offset="0.68" stop-color="#E7A813"/>
<stop offset="1" stop-color="#DA8C19"/>
</linearGradient>
<linearGradient id="paint19_linear_92_779" x1="40.0109" y1="-6.6386" x2="-9.90584" y2="44.7137" gradientUnits="userSpaceOnUse">
<stop stop-color="#F58021"/>
<stop offset="0.39" stop-color="#FFD500"/>
<stop offset="0.68" stop-color="#E7A813"/>
<stop offset="1" stop-color="#DA8C19"/>
</linearGradient>
<linearGradient id="paint20_linear_92_779" x1="38.8236" y1="-7.79055" x2="-11.0911" y2="43.5617" gradientUnits="userSpaceOnUse">
<stop stop-color="#F58021"/>
<stop offset="0.39" stop-color="#FFD500"/>
<stop offset="0.68" stop-color="#E7A813"/>
<stop offset="1" stop-color="#DA8C19"/>
</linearGradient>
<linearGradient id="paint21_linear_92_779" x1="37.4098" y1="-9.16635" x2="-12.509" y2="42.1861" gradientUnits="userSpaceOnUse">
<stop stop-color="#F58021"/>
<stop offset="0.39" stop-color="#FFD500"/>
<stop offset="0.68" stop-color="#E7A813"/>
<stop offset="1" stop-color="#DA8C19"/>
</linearGradient>
<linearGradient id="paint22_linear_92_779" x1="38.483" y1="-8.12526" x2="-11.4358" y2="43.227" gradientUnits="userSpaceOnUse">
<stop stop-color="#F58021"/>
<stop offset="0.39" stop-color="#FFD500"/>
<stop offset="0.68" stop-color="#E7A813"/>
<stop offset="1" stop-color="#DA8C19"/>
</linearGradient>
<linearGradient id="paint23_linear_92_779" x1="41.3327" y1="-5.35113" x2="-8.58404" y2="45.9991" gradientUnits="userSpaceOnUse">
<stop stop-color="#F58021"/>
<stop offset="0.39" stop-color="#FFD500"/>
<stop offset="0.68" stop-color="#E7A813"/>
<stop offset="1" stop-color="#DA8C19"/>
</linearGradient>
<linearGradient id="paint24_linear_92_779" x1="54.0841" y1="7.04313" x2="4.16945" y2="58.3954" gradientUnits="userSpaceOnUse">
<stop stop-color="#F58021"/>
<stop offset="0.39" stop-color="#FFD500"/>
<stop offset="0.68" stop-color="#E7A813"/>
<stop offset="1" stop-color="#DA8C19"/>
</linearGradient>
<linearGradient id="paint25_linear_92_779" x1="57.1606" y1="10.0328" x2="7.24594" y2="61.3851" gradientUnits="userSpaceOnUse">
<stop stop-color="#F58021"/>
<stop offset="0.39" stop-color="#FFD500"/>
<stop offset="0.68" stop-color="#E7A813"/>
<stop offset="1" stop-color="#DA8C19"/>
</linearGradient>
<linearGradient id="paint26_linear_92_779" x1="43.4321" y1="-3.31212" x2="-6.48251" y2="48.0402" gradientUnits="userSpaceOnUse">
<stop stop-color="#F58021"/>
<stop offset="0.39" stop-color="#FFD500"/>
<stop offset="0.68" stop-color="#E7A813"/>
<stop offset="1" stop-color="#DA8C19"/>
</linearGradient>
<linearGradient id="paint27_linear_92_779" x1="43.961" y1="-2.7973" x2="-5.95459" y2="48.5542" gradientUnits="userSpaceOnUse">
<stop stop-color="#F58021"/>
<stop offset="0.39" stop-color="#FFD500"/>
<stop offset="0.68" stop-color="#E7A813"/>
<stop offset="1" stop-color="#DA8C19"/>
</linearGradient>
<linearGradient id="paint28_linear_92_779" x1="44.3949" y1="-2.37574" x2="-5.51969" y2="48.9766" gradientUnits="userSpaceOnUse">
<stop stop-color="#F58021"/>
<stop offset="0.39" stop-color="#FFD500"/>
<stop offset="0.68" stop-color="#E7A813"/>
<stop offset="1" stop-color="#DA8C19"/>
</linearGradient>
<linearGradient id="paint29_linear_92_779" x1="45.9171" y1="-0.897339" x2="-4.00163" y2="50.4549" gradientUnits="userSpaceOnUse">
<stop stop-color="#F58021"/>
<stop offset="0.39" stop-color="#FFD500"/>
<stop offset="0.68" stop-color="#E7A813"/>
<stop offset="1" stop-color="#DA8C19"/>
</linearGradient>
<linearGradient id="paint30_linear_92_779" x1="44.3949" y1="-2.37574" x2="-5.51969" y2="48.9766" gradientUnits="userSpaceOnUse">
<stop stop-color="#F58021"/>
<stop offset="0.39" stop-color="#FFD500"/>
<stop offset="0.68" stop-color="#E7A813"/>
<stop offset="1" stop-color="#DA8C19"/>
</linearGradient>
<linearGradient id="paint31_linear_92_779" x1="297.695" y1="10.2033" x2="393.995" y2="10.2033" gradientUnits="userSpaceOnUse">
<stop stop-color="#F58021"/>
<stop offset="0.39" stop-color="#FFD500"/>
<stop offset="0.68" stop-color="#E7A813"/>
<stop offset="1" stop-color="#DA8C19"/>
</linearGradient>
<linearGradient id="paint32_linear_92_779" x1="150.609" y1="10.2039" x2="54.3092" y2="10.2039" gradientUnits="userSpaceOnUse">
<stop stop-color="#F58021"/>
<stop offset="0.39" stop-color="#FFD500"/>
<stop offset="0.68" stop-color="#E7A813"/>
<stop offset="1" stop-color="#DA8C19"/>
</linearGradient>
<clipPath id="clip0_92_779">
<rect width="394" height="60" fill="white"/>
</clipPath>
</defs>
</svg>
