<svg width="15" height="15" viewBox="0 0 15 15" fill="none" xmlns="http://www.w3.org/2000/svg">
<path d="M13.2553 11.2139L10.4403 9.76353C10.045 9.55859 9.55473 9.66895 9.28589 10.0158L8.25795 11.34C7.24583 10.804 6.48673 10.2838 5.60112 9.40095C4.65226 8.45507 4.14619 7.68261 3.64013 6.7052L4.95273 5.68051C5.30065 5.41251 5.41135 4.92381 5.20576 4.52969L3.75083 1.73936C3.4978 1.25066 2.86522 1.09301 2.40661 1.39254L0.619574 2.59065C0.208398 2.87441 -0.0288185 3.34735 0.0028104 3.83605C0.0344393 4.34052 0.097697 4.98686 0.224213 5.42827C0.746089 7.43037 1.99543 9.49554 3.76665 11.2454C5.52205 12.9953 7.59374 14.2407 9.60218 14.7767C10.045 14.887 10.6934 14.9501 11.2153 14.9974C11.7213 15.0289 12.2116 14.7924 12.4804 14.3668L13.6507 12.5539C13.9037 12.0809 13.7297 11.4661 13.2553 11.2139Z" fill="#737373"/>
<path d="M7.56211 5.88569C7.91003 5.98028 8.25795 6.16945 8.52679 6.45322C8.81145 6.73698 9.00122 7.06803 9.09611 7.41485C9.17518 7.69862 9.44403 7.88779 9.7445 7.87203H9.80776C10.2189 7.85626 10.5194 7.46215 10.4087 7.06803C10.2506 6.50051 9.95009 5.94875 9.49147 5.50734C9.03285 5.05017 8.49516 4.75064 7.92584 4.593C7.53048 4.48264 7.13512 4.78217 7.11931 5.19205V5.25511C7.08768 5.53887 7.27745 5.80687 7.56211 5.88569Z" fill="#737373"/>
<path d="M7.75189 3.61553C8.62168 3.77318 9.45985 4.18306 10.1241 4.84517C10.8041 5.52304 11.2153 6.3428 11.3576 7.20985C11.4208 7.52515 11.7055 7.76162 12.0376 7.74585H12.085C12.4804 7.73009 12.7651 7.3675 12.686 6.98915C12.4804 5.8541 11.9427 4.76635 11.0729 3.88353C10.1873 3.00071 9.11193 2.46472 7.95747 2.27554C7.57793 2.21248 7.21419 2.49625 7.19838 2.8746V2.92189C7.19838 3.26871 7.4356 3.55247 7.75189 3.61553Z" fill="#737373"/>
<path d="M14.9949 6.89452C14.7577 5.20771 13.9986 3.58396 12.7018 2.29127C11.405 0.998572 9.77613 0.241872 8.08399 0.00540318C7.70444 -0.0418906 7.35652 0.226107 7.34071 0.620222V0.68328C7.32489 1.0301 7.57793 1.31386 7.91003 1.36116C9.31751 1.55033 10.6617 2.19668 11.7371 3.26867C12.8125 4.34066 13.4451 5.69642 13.6507 7.0837C13.6981 7.41476 13.9828 7.66699 14.3307 7.65122H14.3939C14.7577 7.6197 15.0423 7.27287 14.9949 6.89452Z" fill="#737373"/>
</svg>
