<svg width="15" height="15" viewBox="0 0 15 15" fill="none" xmlns="http://www.w3.org/2000/svg">
<g clip-path="url(#clip0_1_9749)">
<path d="M13.2557 11.2135L10.4407 9.76317C10.0453 9.55823 9.5551 9.66859 9.28625 10.0154L8.25832 11.3396C7.24619 10.8036 6.4871 10.2834 5.60149 9.40059C4.65262 8.45471 4.14656 7.68225 3.6405 6.70484L4.9531 5.68015C5.30101 5.41215 5.41172 4.92345 5.20613 4.52933L3.7512 1.739C3.49817 1.2503 2.86559 1.09265 2.40697 1.39218L0.61994 2.59029C0.208764 2.87405 -0.0284523 3.34699 0.00317662 3.83569C0.0348055 4.34016 0.0980633 4.9865 0.224579 5.42791C0.746455 7.43002 1.9958 9.49518 3.76701 11.245C5.52242 12.9949 7.59411 14.2403 9.60254 14.7763C10.0453 14.8867 10.6937 14.9497 11.2156 14.997C11.7217 15.0285 12.2119 14.7921 12.4808 14.3664L13.651 12.5535C13.9041 12.0806 13.7301 11.4657 13.2557 11.2135Z" fill="#004F8B"/>
<path d="M7.56245 5.8851C7.91037 5.97969 8.25829 6.16887 8.52713 6.45263C8.81179 6.73639 9.00156 7.06745 9.09645 7.41427C9.17552 7.69803 9.44437 7.88721 9.74484 7.87144H9.8081C10.2193 7.85568 10.5197 7.46156 10.409 7.06745C10.2509 6.49992 9.95043 5.94816 9.49181 5.50675C9.03319 5.04958 8.4955 4.75005 7.92618 4.59241C7.53082 4.48206 7.13546 4.78158 7.11965 5.19146V5.25452C7.08802 5.53828 7.27779 5.80628 7.56245 5.8851Z" fill="#004F8B"/>
<path d="M7.75224 3.6149C8.62203 3.77255 9.4602 4.18243 10.1244 4.84454C10.8044 5.52241 11.2156 6.34217 11.3579 7.20922C11.4212 7.52452 11.7059 7.76099 12.038 7.74522H12.0854C12.4808 7.72946 12.7654 7.36687 12.6863 6.98852C12.4808 5.85347 11.9431 4.76572 11.0733 3.8829C10.1877 3.00008 9.11228 2.46409 7.95782 2.27491C7.57828 2.21185 7.21454 2.49562 7.19873 2.87397V2.92126C7.19873 3.26808 7.43595 3.55184 7.75224 3.6149Z" fill="#004F8B"/>
<path d="M14.9953 6.89404C14.7581 5.20723 13.999 3.58347 12.7022 2.29078C11.4054 0.998083 9.77652 0.241384 8.08437 0.00491489C7.70483 -0.0423789 7.35691 0.225619 7.3411 0.619734V0.682792C7.32528 1.02961 7.57831 1.31338 7.91042 1.36067C9.3179 1.54984 10.6621 2.19619 11.7375 3.26818C12.8129 4.34017 13.4455 5.69593 13.6511 7.08321C13.6985 7.41427 13.9832 7.6665 14.3311 7.65074H14.3943C14.7581 7.61921 15.0427 7.27239 14.9953 6.89404Z" fill="#004F8B"/>
</g>
<defs>
<clipPath id="clip0_1_9749">
<rect width="15" height="15" fill="white"/>
</clipPath>
</defs>
</svg>
