<svg width="32" height="30" viewBox="0 0 32 30" fill="none" xmlns="http://www.w3.org/2000/svg">
<path fill-rule="evenodd" clip-rule="evenodd" d="M9.82987 0C6.80623 2.78416 4.37533 6.18283 2.69031 9.98195C0.991387 13.5208 0.0727272 17.4024 0 21.3492C0 24.0542 0.58631 26.1711 1.75893 27.7C2.30134 28.4368 3.00692 29.0295 3.81686 29.4286C4.6268 29.8278 5.51766 30.0219 6.41522 29.9947C7.25862 30.027 8.09928 29.8776 8.88333 29.556C9.66738 29.2343 10.3775 28.7476 10.9683 28.127C11.5609 27.4789 12.0217 26.7154 12.3237 25.8814C12.6258 25.0474 12.763 24.1597 12.7272 23.2704C12.788 21.6679 12.2511 20.1021 11.2266 18.8941C10.7727 18.3507 10.2087 17.9162 9.57428 17.6212C8.93985 17.3261 8.25038 17.1776 7.55428 17.1861C7.06908 17.1693 6.58351 17.2051 6.1056 17.2931C6.5208 14.7247 7.32388 12.2392 8.48566 9.92654C9.64452 7.59828 11.1067 5.44383 12.8317 3.52289L9.82987 0ZM26.3852 17.1868C25.9345 17.1721 25.4836 17.208 25.0404 17.2937C25.404 14.7441 26.1742 12.2738 27.3198 9.9826C28.4686 7.63251 29.9303 5.45897 31.6626 3.52484L28.6614 0C25.6504 2.83768 23.2227 6.26828 21.5219 10.0889C19.8318 13.593 18.9132 17.4377 18.8316 21.3492C18.8316 24.0542 19.4352 26.1711 20.6424 27.7C21.1978 28.4355 21.9132 29.0263 22.731 29.4248C23.5488 29.8234 24.4461 30.0186 25.3506 29.9947C26.1867 30.0306 27.0206 29.8826 27.7968 29.5605C28.5729 29.2385 29.2735 28.7498 29.8518 28.127C31.0204 26.803 31.6346 25.0578 31.5613 23.2704C31.6221 21.6679 31.0852 20.1021 30.0607 18.8941C29.6068 18.3507 29.0428 17.9162 28.4084 17.6212C27.7739 17.3261 27.0845 17.1776 26.3884 17.1861L26.3852 17.1868Z" fill="white"/>
</svg>
