<svg width="15" height="12" viewBox="0 0 15 12" fill="none" xmlns="http://www.w3.org/2000/svg">
<g clip-path="url(#clip0_1_9785)">
<path opacity="0.75" d="M12.9 3C12.9 3.1 12.9 3.3 12.9 3.4C12.9 5.5 12.1 7.6 10.6 9.2C9.1 11 6.8 11.9 4.5 11.8C2.9 11.8 1.3 11.3 0 10.5C0.2 10.5 0.5 10.5 0.7 10.5C2 10.5 3.3 10.1 4.3 9.2C3.7 9.2 3.1 9 2.6 8.6C2.1 8.2 1.8 7.7 1.6 7.1C1.8 7.1 2 7.1 2.2 7.1C2.5 7.1 2.7 7.1 3 7C2.3 6.9 1.7 6.6 1.2 6C0.8 5.5 0.5 4.9 0.6 4.2C1 4.4 1.4 4.5 1.9 4.5C1.1 4 0.5 3.1 0.6 2.1C0.6 1.6 0.8 1.1 1 0.6C2.5 2.5 4.7 3.6 7.1 3.7C7 3.4 7 3.2 7 3C7 1.4 8.3 0 10 0C10.8 0 11.6 0.3 12.2 0.9C12.9 0.8 13.5 0.6 14.1 0.2C13.9 0.9 13.4 1.5 12.8 1.8C13.4 1.7 13.9 1.6 14.5 1.3C14 2 13.5 2.5 12.9 3Z" fill="#55ACEE"/>
</g>
<defs>
<clipPath id="clip0_1_9785">
<rect width="14.4" height="11.7" fill="white"/>
</clipPath>
</defs>
</svg>
