<svg width="16" height="12" viewBox="0 0 16 12" fill="none" xmlns="http://www.w3.org/2000/svg">
<path d="M15.75 1.38462C15.1594 1.66154 14.5688 1.75385 13.8797 1.84615C14.5688 1.47692 15.0609 0.923077 15.2578 0.184615C14.6672 0.553846 13.9781 0.738462 13.1906 0.923077C12.6 0.369231 11.7141 0 10.8281 0C9.15469 0 7.67813 1.38462 7.67813 3.04615C7.67813 3.32308 7.67812 3.50769 7.77656 3.69231C5.11875 3.6 2.65781 2.4 1.08281 0.553846C0.7875 1.01538 0.689062 1.47692 0.689062 2.12308C0.689062 3.13846 1.27969 4.06154 2.16563 4.61538C1.67344 4.61538 1.18125 4.43077 0.689062 4.24615C0.689062 5.72308 1.77187 6.92308 3.24844 7.2C2.95312 7.29231 2.65781 7.29231 2.3625 7.29231C2.16563 7.29231 1.96875 7.29231 1.77187 7.2C2.16562 8.4 3.34688 9.32308 4.82344 9.32308C3.74063 10.1538 2.3625 10.6154 0.7875 10.6154H0C1.47656 11.4462 3.15 12 4.92188 12C10.8281 12 14.0766 7.38462 14.0766 3.41538V3.04615C14.7656 2.58462 15.3562 2.03077 15.75 1.38462Z" fill="#357432"/>
</svg>
